<svg width="112" height="70" viewBox="0 0 112 70" fill="none" xmlns="http://www.w3.org/2000/svg">
<path fill-rule="evenodd" clip-rule="evenodd" d="M35.8374 0C16.5838 0 0.893479 13.7826 0.195266 31.0227H0.171046V32.1831L0.171021 32.2219L0.171046 32.2607V66.0947C0.171046 71.9746 4.93765 76.7412 10.8176 76.7412H51.3138H60.8573H101.354C107.233 76.7412 112 71.9746 112 66.0947V31.0227H111.976C111.277 13.7826 95.5871 0 76.3336 0C68.8137 0 61.8373 2.10249 56.0855 5.69228C50.3336 2.10249 43.3573 0 35.8374 0Z" fill="#018CF1"/>
<path fill-rule="evenodd" clip-rule="evenodd" d="M36.6569 34.3316V27.4126H43.5759H46.2571H53.1761V34.3316V34.5561H53.1725C53.054 38.2734 50.0032 41.2506 46.2571 41.2506H43.5758C39.8297 41.2506 36.7789 38.2734 36.6604 34.5561H36.6569V34.3316Z" fill="white"/>
<path fill-rule="evenodd" clip-rule="evenodd" d="M59.1808 34.3316V27.4126H66.0998H68.781H75.7V34.3316V34.5561H75.6964C75.5779 38.2734 72.5271 41.2506 68.781 41.2506H66.0998C62.3536 41.2506 59.3029 38.2734 59.1844 34.5561H59.1808V34.3316Z" fill="white"/>
<circle cx="56.1784" cy="40.1049" r="1.81129" fill="#262833" stroke="#262833" stroke-width="0.630162"/>
<path fill-rule="evenodd" clip-rule="evenodd" d="M44.9164 27.4126H39.9636V32.3653V32.7394V32.7787C39.9636 35.514 42.181 37.7314 44.9164 37.7314C47.6517 37.7314 49.8691 35.514 49.8691 32.7787V32.7394V32.3653V27.4126H44.9164Z" fill="#262833"/>
<path fill-rule="evenodd" clip-rule="evenodd" d="M67.4404 27.4126H62.4877V32.3653V32.7394V32.7787C62.4877 35.514 64.7051 37.7314 67.4404 37.7314C70.1757 37.7314 72.3931 35.514 72.3931 32.7787V32.7394V32.3653V27.4126H67.4404Z" fill="#262833"/>
</svg>
