<svg width="1164" height="452" viewBox="0 0 1164 452" fill="none" xmlns="http://www.w3.org/2000/svg">
<rect width="1164" height="452" fill="#262833"/>
<path d="M835.414 265.792C848.84 252.002 855.665 236.575 855.665 219.555C855.665 200.414 849.11 184.01 836.022 170.458M835.414 265.792L836.022 170.458M835.414 265.792C836.913 267.073 838.673 268.167 840.71 269.068C843.304 270.215 846.693 270.839 850.963 270.839H852.963V272.839V284.408V286.408H850.963H847.332C844.073 286.408 840.541 285.866 836.749 284.816C832.882 283.744 828.154 280.695 822.634 275.979C810.904 282.927 798.211 286.408 784.59 286.408C765.291 286.408 748.538 279.918 734.429 266.966L734.426 266.963C720.292 253.93 713.177 237.977 713.177 219.217C713.177 199.27 720.17 182.687 734.163 169.623L835.414 265.792ZM836.022 170.458C836.022 170.458 836.022 170.458 836.023 170.458L834.581 171.844L836.02 170.455C836.02 170.456 836.021 170.457 836.022 170.458ZM822.949 181.365L822.956 181.372C833.557 191.864 838.83 204.47 838.83 219.302C838.83 231.925 833.684 243.729 823.132 254.749C803.785 236.646 781.883 227.52 757.484 227.52C748.438 227.52 739.793 228.824 731.557 231.44C730.528 227.523 730.013 223.507 730.013 219.386C730.013 204.561 735.337 191.927 746.051 181.376C756.764 170.827 769.657 165.569 784.843 165.569C799.737 165.569 812.402 170.818 822.949 181.365ZM755.541 243.088C775.996 243.088 794.032 250.155 809.724 264.372C801.985 268.682 793.506 270.839 784.252 270.839C774.9 270.839 765.955 268.641 757.394 264.225C749.622 260.139 743.299 254.015 738.429 245.785C743.712 243.992 749.411 243.088 755.541 243.088Z" fill="white" stroke="white" stroke-width="4"/>
<path d="M627.237 152.026H625.237V154.026V165.595V167.595H627.237H654.962V282.381V284.381H656.962H669.797H671.797V282.381V167.595H699.521H701.521V165.595V154.026V152.026H699.521H627.237Z" fill="white" stroke="white" stroke-width="4"/>
<path d="M554.817 293.724L553.556 296.541H556.642H569.478H570.774L571.303 295.358L586.419 261.581L587.679 258.764H584.593H571.758H570.461L569.932 259.947L554.817 293.724Z" fill="white" stroke="white" stroke-width="4"/>
<path d="M429.512 169.902L429.509 169.905C415.88 183.186 409.061 199.668 409.061 219.217C409.061 237.296 415.916 253.057 429.503 266.412L429.509 266.418C443.173 279.735 459.692 286.408 478.953 286.408C497.839 286.408 514.238 279.666 528.057 266.252L528.06 266.249C541.881 252.775 548.846 236.729 548.846 218.204C548.846 199.406 541.887 183.296 528.051 169.981C514.231 156.681 497.833 150 478.953 150C459.694 150 443.176 156.643 429.512 169.902ZM515.903 181.053L515.906 181.056C526.672 191.387 532.011 203.735 532.011 218.204C532.011 232.753 526.823 245.134 516.391 255.458C506.013 265.727 493.571 270.839 478.953 270.839C464.281 270.839 451.812 265.7 441.435 255.377C431.04 245.036 425.896 232.956 425.896 219.048C425.896 204.262 431.065 191.709 441.443 181.277L441.446 181.273C451.826 170.785 464.291 165.569 478.953 165.569C492.868 165.569 505.158 170.69 515.903 181.053Z" fill="#FF4365" stroke="#FF4365" stroke-width="4"/>
<path d="M259.814 169.902L259.811 169.905C246.182 183.186 239.362 199.668 239.362 219.217C239.362 237.296 246.218 253.057 259.805 266.412L259.811 266.418C273.474 279.735 289.993 286.408 309.255 286.408C328.14 286.408 344.54 279.666 358.359 266.252L358.362 266.249C372.183 252.775 379.148 236.729 379.148 218.204C379.148 199.406 372.189 183.296 358.353 169.981C344.533 156.681 328.135 150 309.255 150C289.996 150 273.478 156.643 259.814 169.902ZM346.204 181.053L346.208 181.056C356.974 191.387 362.313 203.735 362.313 218.204C362.313 232.753 357.125 245.134 346.693 255.458C336.315 265.727 323.873 270.839 309.255 270.839C294.583 270.839 282.114 265.7 271.737 255.377C261.342 245.036 256.198 232.956 256.198 219.048C256.198 204.262 261.367 191.709 271.744 181.277L271.748 181.273C282.127 170.785 294.593 165.569 309.255 165.569C323.169 165.569 335.46 170.69 346.204 181.053Z" fill="white" stroke="white" stroke-width="4"/>
<path d="M891.913 169.902L891.91 169.905C878.281 183.186 871.461 199.668 871.461 219.217C871.461 237.296 878.317 253.057 891.904 266.412L891.91 266.418C905.574 279.735 922.092 286.408 941.354 286.408C960.239 286.408 976.639 279.666 990.458 266.252L990.461 266.249C1004.28 252.775 1011.25 236.729 1011.25 218.204C1011.25 199.406 1004.29 183.296 990.452 169.981C976.632 156.681 960.234 150 941.354 150C922.095 150 905.577 156.643 891.913 169.902ZM978.303 181.053L978.307 181.056C989.073 191.387 994.412 203.735 994.412 218.204C994.412 232.753 989.224 245.134 978.792 255.458C968.414 265.727 955.972 270.839 941.354 270.839C926.682 270.839 914.213 265.7 903.836 255.377C893.441 245.036 888.297 232.956 888.297 219.048C888.297 204.262 893.466 191.709 903.844 181.277L903.847 181.273C914.227 170.785 926.692 165.569 941.354 165.569C955.269 165.569 967.559 170.69 978.303 181.053Z" fill="white" stroke="white" stroke-width="4"/>
<path d="M153 152.026H151V154.026V165.595V167.595H153H180.724V282.381V284.381H182.724H195.56H197.56V282.381V167.595H225.284H227.284V165.595V154.026V152.026H225.284H153Z" fill="white" stroke="white" stroke-width="4"/>
<circle cx="395.118" cy="281.706" r="17.2941" fill="white"/>
</svg>
