<svg width="123" height="23" viewBox="0 0 123 23" fill="none" xmlns="http://www.w3.org/2000/svg">
<path d="M97.4111 17.3766C99.3086 15.4289 100.273 13.2498 100.273 10.8459C100.273 8.14313 99.3475 5.82703 97.4993 3.91342C97.4993 3.91339 97.4993 3.91335 97.4992 3.91332L97.4111 17.3766ZM97.4111 17.3766C97.6237 17.5588 97.8735 17.7144 98.1628 17.8423C98.5298 18.0046 99.009 18.0928 99.6124 18.0928H99.8914V18.3718V20.0058V20.2848H99.6124H99.0996C98.6397 20.2848 98.1411 20.2082 97.6058 20.06C97.0598 19.9088 96.392 19.4779 95.6115 18.8109L97.4111 17.3766ZM95.6581 5.44939L95.6592 5.4504C97.157 6.9329 97.9022 8.71429 97.9022 10.8101C97.9022 12.595 97.1741 14.2639 95.6816 15.8217C92.9491 13.2637 89.8555 11.9743 86.4093 11.9743C85.1307 11.9743 83.9088 12.1588 82.7449 12.529C82.5988 11.9744 82.5257 11.4056 82.5257 10.822C82.5257 8.72711 83.2782 6.94177 84.7921 5.45089C86.3058 3.96026 88.1277 3.21727 90.2736 3.21727C92.3782 3.21727 94.1678 3.95907 95.6581 5.44939ZM86.1349 14.1662C89.0264 14.1662 91.5759 15.1658 93.7938 17.1765C92.699 17.7871 91.4994 18.0928 90.1901 18.0928C88.8686 18.0928 87.6046 17.7822 86.395 17.1583C85.2955 16.5801 84.4012 15.7135 83.7128 14.5487C84.4604 14.2944 85.2671 14.1662 86.1349 14.1662Z" fill="#E93660" stroke="#E93660" stroke-width="0.557958"/>
<path d="M68.0131 1.31154H67.7341V1.59052V3.22451V3.50349H68.0131H71.9324V19.7195V19.9985H72.2114H74.0243H74.3032V19.7195V3.50349H78.2226H78.5015V3.22451V1.59052V1.31154H78.2226H68.0131Z" fill="#018CF1" stroke="#018CF1" stroke-width="0.557958"/>
<path d="M57.7875 21.3231L57.6117 21.716H58.0422H59.8551H60.0359L60.1097 21.551L62.2446 16.7802L62.4205 16.3873H61.99H60.1771H59.9963L59.9225 16.5523L57.7875 21.3231Z" fill="white" stroke="white" stroke-width="0.557958"/>
<path d="M40.0886 3.83535L40.0882 3.83577C38.1639 5.71088 37.2011 8.03792 37.2011 10.7982C37.2011 13.3507 38.1689 15.5758 40.0873 17.4615L40.0882 17.4624C42.0174 19.3425 44.3496 20.2848 47.0693 20.2848C49.7358 20.2848 52.0512 19.3329 54.0024 17.4389L54.0028 17.4385C55.9542 15.536 56.9376 13.2705 56.9376 10.655C56.9376 8.00096 55.9551 5.72647 54.0015 3.84648C52.0502 1.96863 49.735 1.02531 47.0693 1.02531C44.35 1.02531 42.0179 1.96328 40.0886 3.83535ZM52.2905 5.40522L52.291 5.4057C53.8123 6.86549 54.5667 8.61037 54.5667 10.655C54.5667 12.7108 53.8337 14.4605 52.3595 15.9193C50.8931 17.3703 49.1348 18.0928 47.0693 18.0928C44.996 18.0928 43.234 17.3665 41.7677 15.9079C40.2988 14.4467 39.5719 12.7397 39.5719 10.7743C39.5719 8.68493 40.3023 6.91107 41.7688 5.43694L41.7693 5.43643C43.2359 3.95444 44.9974 3.21727 47.0693 3.21727C49.0356 3.21727 50.7724 3.94102 52.2905 5.40522Z" fill="white" stroke="white" stroke-width="0.557958"/>
<path d="M16.1202 3.83535L16.1197 3.83577C14.1955 5.71088 13.2326 8.03792 13.2326 10.7982C13.2326 13.3507 14.2005 15.5758 16.1189 17.4615L16.1197 17.4624C18.0489 19.3425 20.3812 20.2848 23.1009 20.2848C25.7673 20.2848 28.0828 19.3329 30.0339 17.4389L30.0344 17.4385C31.9858 15.536 32.9691 13.2705 32.9691 10.655C32.9691 8.00096 31.9866 5.72647 30.0331 3.84648C28.0817 1.96863 25.7665 1.02531 23.1009 1.02531C20.3816 1.02531 18.0495 1.96328 16.1202 3.83535ZM28.3221 5.40521L28.3226 5.4057C29.8438 6.86549 30.5983 8.61037 30.5983 10.655C30.5983 12.7108 29.8652 14.4605 28.3911 15.9193C26.9247 17.3703 25.1664 18.0928 23.1009 18.0928C21.0276 18.0928 19.2656 17.3665 17.7993 15.9079C16.3304 14.4467 15.6035 12.7397 15.6035 10.7743C15.6035 8.68493 16.3339 6.91107 17.8003 5.43694L17.8008 5.43643C19.2675 3.95444 21.029 3.21727 23.1009 3.21727C25.0671 3.21727 26.8039 3.94102 28.3221 5.40521Z" fill="white" stroke="white" stroke-width="0.557958"/>
<path d="M105.399 3.83535L105.398 3.83577C103.474 5.71088 102.511 8.03792 102.511 10.7982C102.511 13.3507 103.479 15.5758 105.397 17.4615L105.398 17.4624C107.327 19.3425 109.66 20.2848 112.379 20.2848C115.046 20.2848 117.361 19.3329 119.312 17.4389L119.313 17.4385C121.264 15.536 122.248 13.2705 122.248 10.655C122.248 8.00096 121.265 5.72647 119.312 3.84648C117.36 1.96863 115.045 1.02531 112.379 1.02531C109.66 1.02531 107.328 1.96328 105.399 3.83535ZM117.601 5.40521L117.601 5.4057C119.122 6.86549 119.877 8.61037 119.877 10.655C119.877 12.7108 119.144 14.4605 117.67 15.9193C116.203 17.3703 114.445 18.0928 112.379 18.0928C110.306 18.0928 108.544 17.3665 107.078 15.9079C105.609 14.4467 104.882 12.7397 104.882 10.7743C104.882 8.68493 105.612 6.91107 107.079 5.43694L107.079 5.43643C108.546 3.95444 110.308 3.21727 112.379 3.21727C114.346 3.21727 116.082 3.94102 117.601 5.40521Z" fill="#6147FE" stroke="#6147FE" stroke-width="0.557958"/>
<path d="M1.03125 1.31154H0.752271V1.59052V3.22451V3.50349H1.03125H4.95057V19.7195V19.9985H5.22955H7.04245H7.32142V19.7195V3.50349H11.2407H11.5197V3.22451V1.59052V1.31154H11.2407H1.03125Z" fill="white" stroke="white" stroke-width="0.557958"/>
<circle cx="35.2283" cy="19.6241" r="2.44264" fill="#018CF1"/>
<rect x="41.1612" y="16.4054" width="16.0066" height="3.04948" transform="rotate(-54.6353 41.1612 16.4054)" fill="white"/>
</svg>
