<svg width="140" height="116" viewBox="0 0 140 116" fill="none" xmlns="http://www.w3.org/2000/svg">
<path d="M67.9971 29.1175C70.1122 23.6819 76.9709 21.9779 81.3839 25.7916L89.3176 32.648C92.1494 35.0952 96.2545 35.3857 99.4026 33.3616L108.223 27.6909C113.129 24.5366 119.679 27.1895 121.008 32.8688L123.396 43.079C124.249 46.7233 127.399 49.3712 131.136 49.5842L141.605 50.1808C147.428 50.5126 151.168 56.5092 148.904 61.8847L144.835 71.5488C143.383 74.9982 144.375 78.9921 147.273 81.3608L155.392 87.9969C159.908 91.6881 159.409 98.7378 154.418 101.756L145.446 107.183C142.243 109.12 140.698 112.934 141.651 116.554L144.318 126.695C145.802 132.335 141.255 137.745 135.443 137.254L124.994 136.37C121.265 136.055 117.773 138.233 116.416 141.721L112.614 151.493C110.498 156.928 103.64 158.633 99.2267 154.819L91.293 147.962C88.4612 145.515 84.3561 145.225 81.208 147.249L72.3878 152.92C67.4817 156.074 60.9313 153.421 59.6027 147.742L57.2143 137.531C56.3618 133.887 53.2115 131.239 49.4748 131.026L39.006 130.43C33.1828 130.098 29.4427 124.101 31.7061 118.726L35.7752 109.062C37.2276 105.612 36.2354 101.618 33.3375 99.2496L25.2187 92.6135C20.7028 88.9223 21.2016 81.8727 26.1924 78.8541L35.1648 73.4275C38.3673 71.4906 39.9121 67.6762 38.96 64.0566L36.2923 53.9158C34.8085 48.2751 39.3558 42.865 45.1676 43.3565L55.6162 44.2401C59.3456 44.5555 62.8374 42.3776 64.1946 38.8896L67.9971 29.1175Z" fill="#E93660"/>
<circle cx="89.6682" cy="69.0727" r="2.31643" fill="black" stroke="black" stroke-width="0.805904"/>
<circle cx="102.847" cy="59.1428" r="8.15978" fill="black" stroke="white" stroke-width="5.0369"/>
<circle cx="76.252" cy="59.1431" r="8.15978" fill="black" stroke="white" stroke-width="5.0369"/>
</svg>
