<svg width="304" height="99" viewBox="0 0 304 99" fill="none" xmlns="http://www.w3.org/2000/svg">
<path fill-rule="evenodd" clip-rule="evenodd" d="M43.2287 81.6944L8.99905 81.6944C4.02901 81.6944 0 77.6654 0 72.6953V43.0505H0.0205249C0.610708 28.4782 13.8731 16.8284 30.1473 16.8284C36.5035 16.8284 42.4003 18.6055 47.2621 21.6398C52.1239 18.6055 58.0207 16.8284 64.3769 16.8284C80.6511 16.8284 93.9135 28.4782 94.5036 43.0505H94.5242V72.6953C94.5242 77.6654 90.4952 81.6944 85.5251 81.6944H51.3073C51.3033 81.6944 51.2994 81.6944 51.2954 81.6944L43.2287 81.6944Z" fill="#018CF1"/>
<path d="M150.2 6.45859C152.423 3.30906 157.094 3.30906 159.317 6.45859L163.313 12.1208C164.74 14.1418 167.326 14.9823 169.668 14.1857L176.23 11.9539C179.879 10.7124 183.658 13.458 183.605 17.3126L183.51 24.2423C183.476 26.7158 185.075 28.9163 187.438 29.6484L194.058 31.6994C197.74 32.8402 199.183 37.2826 196.875 40.3699L192.725 45.9204C191.244 47.9015 191.244 50.6215 192.725 52.6026L196.875 58.153C199.183 61.2404 197.74 65.6827 194.058 66.8236L187.438 68.8746C185.075 69.6066 183.476 71.8071 183.51 74.2806L183.605 81.2104C183.658 85.065 179.879 87.8105 176.23 86.5691L169.668 84.3373C167.326 83.5406 164.74 84.3812 163.313 86.4022L159.317 92.0644C157.094 95.2139 152.423 95.2139 150.2 92.0644L146.204 86.4022C144.777 84.3812 142.19 83.5406 139.849 84.3373L133.287 86.5691C129.638 87.8105 125.859 85.065 125.912 81.2104L126.007 74.2806C126.041 71.8071 124.442 69.6066 122.079 68.8746L115.459 66.8236C111.777 65.6827 110.333 61.2404 112.642 58.153L116.792 52.6026C118.273 50.6215 118.273 47.9015 116.792 45.9204L112.642 40.3699C110.333 37.2826 111.777 32.8402 115.459 31.6994L122.079 29.6484C124.442 28.9163 126.041 26.7158 126.007 24.2423L125.912 17.3126C125.859 13.458 129.638 10.7124 133.287 11.9539L139.849 14.1857C142.19 14.9823 144.777 14.1418 146.204 12.1208L150.2 6.45859Z" fill="#E93660"/>
<path fill-rule="evenodd" clip-rule="evenodd" d="M299.707 51.0564C302.327 46.6388 303.831 41.4817 303.831 35.9733C303.831 19.6187 290.573 6.3606 274.218 6.3606C268.824 6.3606 263.767 7.80264 259.412 10.3222C255.056 7.80265 249.999 6.3606 244.605 6.3606C228.251 6.3606 214.993 19.6187 214.993 35.9733C214.993 41.4817 216.497 46.6388 219.116 51.0564C216.497 55.474 214.993 60.6311 214.993 66.1395C214.993 82.4942 228.251 95.7523 244.605 95.7523C249.999 95.7523 255.056 94.3102 259.412 91.7906C263.767 94.3102 268.824 95.7523 274.218 95.7523C290.573 95.7523 303.831 82.4942 303.831 66.1395C303.831 60.6311 302.327 55.474 299.707 51.0564Z" fill="#6147FE"/>
<circle cx="47.3407" cy="50.7329" r="1.53101" fill="black" stroke="black" stroke-width="0.532649"/>
<circle cx="56.0509" cy="44.1661" r="6.15769" fill="black" stroke="white" stroke-width="1.79981"/>
<circle cx="38.4734" cy="44.1661" r="6.15769" fill="black" stroke="white" stroke-width="1.79981"/>
<circle cx="154.837" cy="50.7345" r="1.53101" fill="black" stroke="black" stroke-width="0.532649"/>
<circle cx="163.547" cy="44.1661" r="6.15769" fill="black" stroke="white" stroke-width="1.79981"/>
<circle cx="145.97" cy="44.1661" r="6.15769" fill="black" stroke="white" stroke-width="1.79981"/>
<circle cx="259.49" cy="50.7358" r="1.53101" fill="black" stroke="black" stroke-width="0.532649"/>
<circle cx="268.2" cy="44.1661" r="6.15769" fill="black" stroke="white" stroke-width="1.79981"/>
<circle cx="250.623" cy="44.1661" r="6.15769" fill="black" stroke="white" stroke-width="1.79981"/>
<rect x="50.8937" y="46.8223" width="11.7088" height="2.08612" transform="rotate(-40.1584 50.8937 46.8223)" fill="white"/>
<rect x="158.4" y="47.1445" width="11.7088" height="2.08612" transform="rotate(-40.1584 158.4 47.1445)" fill="white"/>
<rect x="263.053" y="47.3427" width="11.7088" height="2.08612" transform="rotate(-40.1584 263.053 47.3427)" fill="white"/>
</svg>
