<svg width="297" height="123" viewBox="0 0 297 123" fill="none" xmlns="http://www.w3.org/2000/svg">
<path fill-rule="evenodd" clip-rule="evenodd" d="M63.7133 59.1155V89.3474C63.7133 94.5953 59.4591 98.8495 54.2112 98.8495H9.55007C4.30218 98.8495 0.0479126 94.5953 0.0479126 89.3474V59.1155V58.0451H0.0695535C0.692739 42.6581 14.6966 30.357 31.8806 30.357C49.0647 30.357 63.0685 42.6581 63.6917 58.0451H63.7133V59.1155Z" fill="#018CF1"/>
<path fill-rule="evenodd" clip-rule="evenodd" d="M99.8566 59.1531V89.3474C99.8566 94.5953 95.6024 98.8495 90.3545 98.8495H45.6934C40.4455 98.8495 36.1912 94.5953 36.1912 89.3474V58.0451H36.2129C36.836 42.6581 50.8399 30.357 68.0239 30.357C85.208 30.357 99.2118 42.6581 99.835 58.0451H99.8566V59.0778C99.8566 59.0904 99.8567 59.1029 99.8567 59.1155C99.8567 59.128 99.8566 59.1406 99.8566 59.1531Z" fill="#018CF1"/>
<circle cx="31.9635" cy="59.5568" r="1.6166" fill="black" stroke="black" stroke-width="0.562428"/>
<circle cx="41.1607" cy="52.6269" r="5.69459" fill="black" stroke="white" stroke-width="3.51518"/>
<circle cx="22.6006" cy="52.6271" r="5.69459" fill="black" stroke="white" stroke-width="3.51518"/>
<path d="M140.306 19.8255C141.745 16.1273 146.412 14.968 149.414 17.5627L154.812 22.2274C156.738 23.8924 159.531 24.09 161.673 22.713L167.674 18.8549C171.012 16.7088 175.469 18.5137 176.372 22.3777L177.997 29.3242C178.577 31.8036 180.721 33.6051 183.263 33.75L190.385 34.1559C194.347 34.3817 196.892 38.4614 195.352 42.1187L192.583 48.6937C191.595 51.0405 192.27 53.7577 194.242 55.3692L199.766 59.8841C202.838 62.3955 202.499 67.1917 199.103 69.2454L192.999 72.9374C190.82 74.2552 189.769 76.8503 190.417 79.3129L192.232 86.2122C193.241 90.0499 190.147 93.7306 186.193 93.3963L179.085 92.7951C176.547 92.5805 174.172 94.0623 173.248 96.4353L170.661 103.084C169.222 106.782 164.556 107.941 161.554 105.347L156.156 100.682C154.229 99.0168 151.436 98.8192 149.294 100.196L143.294 104.054C139.956 106.2 135.499 104.395 134.595 100.532L132.97 93.5851C132.39 91.1056 130.247 89.3041 127.705 89.1592L120.582 88.7533C116.62 88.5276 114.076 84.4478 115.616 80.7906L118.384 74.2156C119.372 71.8688 118.697 69.1515 116.726 67.54L111.202 63.0251C108.13 60.5138 108.469 55.7175 111.865 53.6639L117.969 49.9718C120.148 48.654 121.199 46.0589 120.551 43.5963L118.736 36.697C117.727 32.8593 120.82 29.1786 124.774 29.513L131.883 30.1141C134.42 30.3287 136.796 28.847 137.719 26.4739L140.306 19.8255Z" fill="#E93660"/>
<circle cx="155.05" cy="62.7531" r="1.57599" fill="black" stroke="black" stroke-width="0.548298"/>
<circle cx="164.017" cy="55.9973" r="5.55152" fill="black" stroke="white" stroke-width="3.42686"/>
<circle cx="145.923" cy="55.9975" r="5.55152" fill="black" stroke="white" stroke-width="3.42686"/>
<path fill-rule="evenodd" clip-rule="evenodd" d="M292.814 64.6033C295.443 60.1698 296.952 54.9941 296.952 49.4659C296.952 33.0524 283.646 19.7467 267.233 19.7467C261.82 19.7467 256.745 21.1939 252.373 23.7226C248.002 21.1939 242.927 19.7467 237.514 19.7467C221.1 19.7467 207.794 33.0525 207.794 49.4659C207.794 54.9941 209.304 60.1698 211.933 64.6033C209.304 69.0368 207.794 74.2124 207.794 79.7406C207.794 96.1541 221.1 109.46 237.514 109.46C242.927 109.46 248.002 108.013 252.373 105.484C256.745 108.013 261.82 109.46 267.233 109.46C283.646 109.46 296.952 96.1541 296.952 79.7406C296.952 74.2124 295.443 69.0367 292.814 64.6033Z" fill="#6147FE"/>
<path fill-rule="evenodd" clip-rule="evenodd" d="M237.26 47.7943V42.4097H242.644H244.731H250.116V47.7943V47.969H250.113C250.021 50.8619 247.646 53.1788 244.731 53.1788H242.644C239.729 53.1788 237.355 50.8619 237.263 47.969H237.26V47.7943Z" fill="white"/>
<path fill-rule="evenodd" clip-rule="evenodd" d="M254.789 47.7943V42.4098H260.173H262.26H267.644V47.7943V47.9691H267.641C267.549 50.862 265.175 53.1789 262.26 53.1789H260.173C257.258 53.1789 254.884 50.862 254.791 47.9691H254.789V47.7943Z" fill="white"/>
<circle cx="252.452" cy="52.2872" r="1.40959" fill="black" stroke="black" stroke-width="0.490409"/>
<path fill-rule="evenodd" clip-rule="evenodd" d="M243.688 42.4098H247.542V46.2641V46.5553V46.5858C247.542 48.7145 245.816 50.4402 243.688 50.4402C241.559 50.4402 239.833 48.7145 239.833 46.5858V46.5553V46.2641V42.4098H243.688Z" fill="black"/>
<path fill-rule="evenodd" clip-rule="evenodd" d="M261.216 42.4098H265.071V46.2641V46.5553V46.5858C265.071 48.7145 263.345 50.4402 261.216 50.4402C259.088 50.4402 257.362 48.7145 257.362 46.5858V46.5553V46.2641V42.4098H261.216Z" fill="black"/>
</svg>
