<svg width="147" height="144" viewBox="0 0 147 144" fill="none" xmlns="http://www.w3.org/2000/svg">
<path d="M110 71C110 97.5097 85.3757 119 55 119C24.6243 119 0 97.5097 0 71C0 44.4903 24.6243 23 55 23C85.3757 23 110 44.4903 110 71Z" fill="white"/>
<path d="M175 48C175 74.5097 150.376 96 120 96C89.6243 96 65 74.5097 65 48C65 21.4903 89.6243 0 120 0C150.376 0 175 21.4903 175 48Z" fill="white"/>
<path d="M165 96C165 122.51 140.376 144 110 144C79.6243 144 55 122.51 55 96C55 69.4903 79.6243 48 110 48C140.376 48 165 69.4903 165 96Z" fill="white"/>
</svg>
