<svg width="217" height="38" viewBox="0 0 217 38" fill="none" xmlns="http://www.w3.org/2000/svg">
<path d="M172.342 29.5731C175.715 26.1103 177.43 22.2364 177.43 17.9628C177.43 13.1579 175.784 9.04038 172.499 5.6384C169.198 2.20679 164.864 0.504037 159.547 0.504037C154.66 0.504037 150.446 2.1474 146.932 5.42952C143.419 8.70862 141.664 12.8709 141.664 17.878C141.664 22.5866 143.45 26.5906 146.998 29.8621L146.998 29.8629C150.54 33.114 154.745 34.7431 159.589 34.7431C163.01 34.7431 166.197 33.8685 169.143 32.1229C170.53 33.3086 171.717 34.0746 172.688 34.3434C173.64 34.607 174.526 34.7431 175.344 34.7431H176.255H176.751V34.2471V31.3422V30.8463H176.255C175.183 30.8463 174.331 30.6895 173.678 30.401C173.164 30.1735 172.72 29.8969 172.342 29.5731ZM169.226 8.36906L169.227 8.37086C171.89 11.0064 173.215 14.1733 173.215 17.8992C173.215 21.0724 171.921 24.0392 169.267 26.8086C164.409 22.2612 158.91 19.9689 152.783 19.9689C150.51 19.9689 148.338 20.297 146.269 20.955C146.009 19.969 145.879 18.9579 145.879 17.9204C145.879 14.1961 147.217 11.0222 149.908 8.37174C152.599 5.72172 155.838 4.40084 159.653 4.40084C163.394 4.40084 166.576 5.71961 169.226 8.36906ZM152.295 23.8657C157.436 23.8657 161.968 25.6426 165.911 29.2172C163.965 30.3028 161.832 30.8463 159.505 30.8463C157.155 30.8463 154.908 30.294 152.758 29.1849C150.803 28.157 149.213 26.6165 147.989 24.5457C149.318 24.0936 150.753 23.8657 152.295 23.8657Z" fill="#E93660" stroke="#E93660" stroke-width="0.991926"/>
<path d="M120.079 1.01289H119.583V1.50885V4.41373V4.90969H120.079H127.047V33.7382V34.2341H127.542H130.765H131.261V33.7382V4.90969H138.229H138.725V4.41373V1.50885V1.01289H138.229H120.079Z" fill="#018CF1" stroke="#018CF1" stroke-width="0.991926"/>
<path d="M101.9 36.589L101.587 37.2875H102.353H105.576H105.897L106.028 36.9942L109.824 28.5128L110.136 27.8142H109.371H106.148H105.827L105.696 28.1076L101.9 36.589Z" fill="white" stroke="white" stroke-width="0.991926"/>
<path d="M70.4353 5.49966L70.4345 5.5004C67.0137 8.83393 65.3019 12.9709 65.3019 17.878C65.3019 22.4158 67.0225 26.3716 70.433 29.724L70.4345 29.7255C73.8642 33.068 78.0105 34.7431 82.8455 34.7431C87.5858 34.7431 91.7022 33.0509 95.1709 29.6838L95.1717 29.683C98.6409 26.3009 100.389 22.2733 100.389 17.6236C100.389 12.9052 98.6423 8.86164 95.1694 5.51944C91.7003 2.18105 87.5844 0.504037 82.8455 0.504037C78.0112 0.504037 73.8652 2.17153 70.4353 5.49966ZM92.1276 8.29053L92.1285 8.2914C94.8329 10.8866 96.1742 13.9886 96.1742 17.6236C96.1742 21.2783 94.871 24.3888 92.2502 26.9822C89.6433 29.5619 86.5175 30.8463 82.8455 30.8463C79.1596 30.8463 76.0272 29.555 73.4204 26.9619C70.8091 24.3642 69.5167 21.3295 69.5167 17.8356C69.5167 14.1211 70.8153 10.9676 73.4223 8.34694L73.4232 8.34603C76.0305 5.71137 79.1621 4.40084 82.8455 4.40084C86.341 4.40084 89.4287 5.68753 92.1276 8.29053Z" fill="white" stroke="white" stroke-width="0.991926"/>
<path d="M27.8247 5.49966L27.8239 5.5004C24.4031 8.83393 22.6913 12.9709 22.6913 17.878C22.6913 22.4158 24.412 26.3716 27.8224 29.724L27.8239 29.7255C31.2536 33.068 35.3999 34.7431 40.2349 34.7431C44.9752 34.7431 49.0916 33.0509 52.5603 29.6838L52.5611 29.683C56.0303 26.3009 57.7785 22.2733 57.7785 17.6236C57.7785 12.9052 56.0317 8.86164 52.5588 5.51944C49.0897 2.18105 44.9738 0.504037 40.2349 0.504037C35.4006 0.504037 31.2546 2.17153 27.8247 5.49966ZM49.517 8.29053L49.5179 8.2914C52.2223 10.8866 53.5636 13.9886 53.5636 17.6236C53.5636 21.2783 52.2604 24.3888 49.6396 26.9822C47.0327 29.5619 43.9069 30.8463 40.2349 30.8463C36.549 30.8463 33.4166 29.555 30.8098 26.9619C28.1985 24.3642 26.9062 21.3295 26.9062 17.8356C26.9062 14.1211 28.2047 10.9676 30.8117 8.34694L30.8126 8.34602C33.4199 5.71137 36.5515 4.40084 40.2349 4.40084C43.7304 4.40084 46.8181 5.68753 49.517 8.29053Z" fill="white" stroke="white" stroke-width="0.991926"/>
<path d="M186.542 5.49966L186.541 5.5004C183.12 8.83393 181.409 12.9709 181.409 17.878C181.409 22.4158 183.129 26.3716 186.54 29.724L186.541 29.7255C189.971 33.068 194.117 34.7431 198.952 34.7431C203.692 34.7431 207.809 33.0509 211.278 29.6838L211.278 29.683C214.748 26.3009 216.496 22.2733 216.496 17.6236C216.496 12.9052 214.749 8.86164 211.276 5.51944C207.807 2.18105 203.691 0.504037 198.952 0.504037C194.118 0.504037 189.972 2.17153 186.542 5.49966ZM208.234 8.29053L208.235 8.2914C210.94 10.8866 212.281 13.9886 212.281 17.6236C212.281 21.2783 210.978 24.3888 208.357 26.9822C205.75 29.5619 202.624 30.8463 198.952 30.8463C195.266 30.8463 192.134 29.555 189.527 26.9619C186.916 24.3642 185.623 21.3295 185.623 17.8356C185.623 14.1211 186.922 10.9676 189.529 8.34694L189.53 8.34602C192.137 5.71137 195.269 4.40084 198.952 4.40084C202.448 4.40084 205.535 5.68753 208.234 8.29053Z" fill="#6147FE" stroke="#6147FE" stroke-width="0.991926"/>
<path d="M1 1.01289H0.504037V1.50885V4.41373V4.90969H1H7.96767V33.7382V34.2341H8.46364H11.6866H12.1825V33.7382V4.90969H19.1502H19.6462V4.41373V1.50885V1.01289H19.1502H1Z" fill="white" stroke="white" stroke-width="0.991926"/>
<circle cx="61.7948" cy="33.5686" r="4.34248" fill="#018CF1"/>
<rect x="72.342" y="27.8464" width="28.4562" height="5.4213" transform="rotate(-54.6353 72.342 27.8464)" fill="white"/>
</svg>
