<svg width="335" height="491" viewBox="0 0 335 491" fill="none" xmlns="http://www.w3.org/2000/svg">
<rect width="335" height="491" rx="10" fill="#171717"/>
<path fill-rule="evenodd" clip-rule="evenodd" d="M294.312 154.164L294.291 154.198L281.299 175.06C280.204 176.818 277.892 177.356 276.134 176.261L254.28 162.652C254.263 162.642 254.247 162.631 254.23 162.621L222.015 142.559C220.257 141.465 219.72 139.152 220.814 137.394L234.231 115.85L234.244 115.858C240.429 106.769 253.557 104.599 263.971 111.084C268.038 113.617 271.103 117.104 273.005 120.982C277.325 120.978 281.807 122.191 285.874 124.724C296.288 131.209 300.132 143.948 294.703 153.508L294.716 153.516L294.333 154.13L294.312 154.164Z" fill="#018CF1" fill-opacity="0.3"/>
<path fill-rule="evenodd" clip-rule="evenodd" d="M47.2639 180.073C50.633 179.049 54.0656 178.989 57.2648 179.736C59.5071 177.335 62.392 175.474 65.7612 174.45C75.9771 171.344 86.7763 177.108 89.882 187.324C90.928 190.765 90.9678 194.272 90.1702 197.529C92.6455 199.791 94.5643 202.727 95.6103 206.167C98.7159 216.383 92.9519 227.183 82.736 230.288C79.3669 231.312 75.9343 231.372 72.7351 230.625C70.4928 233.026 67.6079 234.887 64.2387 235.911C54.0228 239.017 43.2236 233.253 40.118 223.037C39.072 219.596 39.0321 216.089 39.8297 212.832C37.3544 210.57 35.4356 207.635 34.3896 204.194C31.284 193.978 37.048 183.179 47.2639 180.073Z" fill="#6147FE" fill-opacity="0.39"/>
<path d="M268.33 349.325C270.851 345.753 276.149 345.753 278.67 349.325C280.288 351.617 283.222 352.571 285.878 351.667C290.017 350.259 294.303 353.373 294.243 357.745C294.205 360.55 296.018 363.046 298.698 363.876C302.875 365.17 304.512 370.209 301.893 373.711C300.213 375.958 300.213 379.042 301.893 381.289C304.512 384.791 302.875 389.83 298.698 391.124C296.018 391.954 294.205 394.45 294.243 397.255C294.303 401.627 290.017 404.741 285.878 403.333C283.222 402.429 280.288 403.383 278.67 405.675C276.149 409.247 270.851 409.247 268.33 405.675C266.712 403.383 263.778 402.429 261.122 403.333C256.983 404.741 252.697 401.627 252.757 397.255C252.795 394.45 250.982 391.954 248.302 391.124C244.125 389.83 242.488 384.791 245.107 381.289C246.787 379.042 246.787 375.958 245.107 373.711C242.488 370.209 244.125 365.17 248.302 363.876C250.982 363.046 252.795 360.55 252.757 357.745C252.697 353.373 256.983 350.259 261.122 351.667C263.778 352.571 266.712 351.617 268.33 349.325Z" fill="#E93660" fill-opacity="0.3"/>
<ellipse opacity="0.2" cx="285.719" cy="286.765" rx="3.1416" ry="5.9976" transform="rotate(30 285.719 286.765)" fill="#FFD977"/>
<ellipse opacity="0.2" cx="64.7195" cy="370.765" rx="3.1416" ry="5.9976" fill="#FFD977"/>
<ellipse opacity="0.2" cx="103.142" cy="157.998" rx="3.1416" ry="5.9976" transform="rotate(-13 103.142 157.998)" fill="#FFD977"/>
</svg>
