<svg width="224" height="163" viewBox="0 0 224 163" fill="none" xmlns="http://www.w3.org/2000/svg">
<path fill-rule="evenodd" clip-rule="evenodd" d="M166.277 76.6422C171.457 76.6422 176.313 78.0271 180.496 80.4468C184.679 78.0271 189.536 76.6422 194.716 76.6422C210.422 76.6422 223.155 89.3748 223.155 105.081C223.155 110.371 221.711 115.324 219.195 119.567C221.711 123.809 223.155 128.762 223.155 134.052C223.155 149.759 210.422 162.491 194.716 162.491C189.536 162.491 184.679 161.106 180.496 158.687C176.313 161.106 171.457 162.491 166.277 162.491C150.57 162.491 137.837 149.759 137.837 134.052C137.837 128.762 139.282 123.809 141.798 119.567C139.282 115.324 137.837 110.371 137.837 105.081C137.837 89.3748 150.57 76.6422 166.277 76.6422Z" fill="#6147FE"/>
<path fill-rule="evenodd" clip-rule="evenodd" d="M49.2742 162.386C49.2704 162.386 49.2665 162.386 49.2626 162.386H8.64248C3.86942 162.386 7.64386e-05 158.516 7.64386e-05 153.743V126.308L0 126.247L7.64386e-05 126.186V125.273H0.0196807C0.58645 111.279 13.3232 100.09 28.9525 100.09C35.0568 100.09 40.7199 101.797 45.3891 104.711C50.0582 101.797 55.7213 100.09 61.8257 100.09C77.4549 100.09 90.1917 111.278 90.7585 125.273H90.7782V153.743C90.7782 158.516 86.9088 162.386 82.1358 162.386H49.2742Z" fill="#018CF1"/>
<circle cx="45.4645" cy="132.648" r="1.47033" fill="black" stroke="black" stroke-width="0.51154"/>
<circle cx="53.8295" cy="126.344" r="5.91366" fill="black" stroke="white" stroke-width="1.72848"/>
<circle cx="36.9488" cy="126.345" r="5.91366" fill="black" stroke="white" stroke-width="1.72848"/>
<circle cx="35.2048" cy="125.034" r="1.74384" fill="white"/>
<circle cx="52.0856" cy="125.034" r="1.74384" fill="white"/>
<circle cx="38.6926" cy="127.651" r="1.74384" fill="white"/>
<circle cx="55.5734" cy="127.651" r="1.74384" fill="white"/>
<path d="M101.618 6.20263C103.753 3.17793 108.239 3.17792 110.374 6.20263L114.212 11.6404C115.582 13.5813 118.066 14.3885 120.315 13.6235L126.616 11.4801C130.121 10.2879 133.751 12.9246 133.7 16.6265L133.608 23.2816C133.576 25.657 135.111 27.7703 137.38 28.4734L143.738 30.4431C147.274 31.5387 148.661 35.8051 146.444 38.7701L142.458 44.1005C141.035 46.0031 141.035 48.6153 142.458 50.5179L146.444 55.8483C148.661 58.8133 147.274 63.0797 143.738 64.1753L137.38 66.145C135.111 66.8481 133.576 68.9614 133.608 71.3368L133.7 77.9919C133.751 81.6938 130.121 84.3305 126.616 83.1383L120.315 80.9949C118.066 80.2299 115.582 81.0371 114.212 82.978L110.374 88.4158C108.239 91.4405 103.753 91.4405 101.618 88.4158L97.7805 82.978C96.4107 81.0371 93.9263 80.2299 91.6772 80.9949L85.376 83.1383C81.8711 84.3305 78.2419 81.6938 78.2927 77.9919L78.384 71.3368C78.4166 68.9614 76.8812 66.8481 74.612 66.145L68.2543 64.1753C64.718 63.0797 63.3318 58.8134 65.5487 55.8484L69.5344 50.5179C70.957 48.6153 70.957 46.0031 69.5344 44.1005L65.5487 38.7701C63.3318 35.8051 64.718 31.5387 68.2543 30.4431L74.612 28.4734C76.8812 27.7703 78.4166 25.657 78.384 23.2816L78.2927 16.6265C78.2419 12.9246 81.8711 10.2879 85.376 11.4801L91.6772 13.6235C93.9263 14.3885 96.4107 13.5813 97.7805 11.6404L101.618 6.20263Z" fill="#E93660"/>
<circle cx="106.072" cy="48.719" r="1.47033" fill="black" stroke="black" stroke-width="0.51154"/>
<circle cx="114.437" cy="42.4158" r="5.91366" fill="black" stroke="white" stroke-width="1.72848"/>
<circle cx="97.556" cy="42.4158" r="5.91366" fill="black" stroke="white" stroke-width="1.72848"/>
<circle cx="95.8121" cy="41.1055" r="1.74384" fill="white"/>
<circle cx="112.693" cy="41.1055" r="1.74384" fill="white"/>
<circle cx="99.2998" cy="43.7218" r="1.74384" fill="white"/>
<circle cx="116.181" cy="43.7218" r="1.74384" fill="white"/>
<circle cx="179.943" cy="119.253" r="1.47033" fill="black" stroke="black" stroke-width="0.51154"/>
<circle cx="188.308" cy="112.949" r="5.91366" fill="black" stroke="white" stroke-width="1.72848"/>
<circle cx="171.427" cy="112.949" r="5.91366" fill="black" stroke="white" stroke-width="1.72848"/>
<circle cx="169.683" cy="111.639" r="1.74384" fill="white"/>
<circle cx="186.564" cy="111.639" r="1.74384" fill="white"/>
<circle cx="173.171" cy="114.255" r="1.74384" fill="white"/>
<circle cx="190.052" cy="114.255" r="1.74384" fill="white"/>
</svg>
